<svg width="793.70135" height="1122.52" xmlns="http://www.w3.org/2000/svg">
 <metadata id="metadata8">image/svg+xml</metadata>
 <defs>
  <clipPath clipPathUnits="userSpaceOnUse" id="clipPath26">
   <path d="m-17.082167,840.38275l595.276,0l0,-841.89l-595.276,0l0,841.89z" id="path24"/>
  </clipPath>
 </defs>
 <g>
  <title>background</title>
  <rect fill="none" id="canvas_background" height="402" width="582" y="-1" x="-1"/>
 </g>
 <g>
  <title>Layer 1</title>
  <g transform="matrix(1.9903797605737568,0,0,-1.9903797605737568,-90.75934445557323,1496.696655012119) " id="g20">
   <g id="g22" clip-path="url(#clipPath26)">
    <g id="g28">
     <path fill="#efb91d" fill-rule="evenodd" d="m339.462725,536.934034l0,0.104l-0.043,-0.029l0.043,-0.075zm-21.214,-56.695c-1.563,-3.974 -3.124,-7.936 -4.68,-11.882c-0.413,-1.001 -1.23,-2.873 -1.463,-3.796c-0.014,-0.008 -0.03,-0.019 -0.039,-0.026c-0.133,-0.087 -0.259,-0.167 -0.394,-0.253c-0.016,-0.011 -0.034,-0.021 -0.048,-0.029c-0.158,0.574 -2.417,4.876 -4.698,9.177c-2.322,4.379 -4.695,8.757 -4.841,9.012c-1.012,1.858 -1.551,3.968 -1.46,6.465c0.092,2.502 0.824,5.41 2.358,8.831c1.28,2.911 2.668,5.176 4.553,7.596c2.463,3.177 4.496,4.824 7.186,6.474c0.002,0.015 0.002,0.037 0.006,0.059c0.324,0.192 0.651,0.377 0.983,0.57c1.566,0.912 3.101,1.342 4.486,1.39c1.382,0.045 2.634,-0.309 3.649,-0.957c0.731,-0.472 1.345,-1.103 1.802,-1.867c1.064,-1.802 1.402,-3.98 1.171,-6.464c-0.233,-2.48 -1.041,-5.285 -2.263,-8.369c-1.073,-2.672 -2.123,-5.324 -3.164,-7.972c-1.041,-2.646 -2.078,-5.293 -3.144,-7.959m-3.682,26.473c2.178,1.282 4.066,1.411 5.362,0.609c1.292,-0.805 1.997,-2.54 1.825,-5.013c-0.177,-2.467 -1.19,-5.211 -2.689,-7.652c-1.502,-2.442 -3.498,-4.606 -5.64,-5.916c-2.153,-1.316 -4.058,-1.517 -5.391,-0.777c-1.341,0.743 -2.099,2.459 -1.955,4.95c0.137,2.497 1.161,5.308 2.709,7.813c1.539,2.505 3.594,4.701 5.779,5.986m-0.362,-5.755c1.591,0.949 2.771,0.235 2.65,-1.582c-0.119,-1.819 -1.492,-4.053 -3.071,-5.006c-1.588,-0.957 -2.79,-0.265 -2.676,1.561c0.109,1.822 1.501,4.077 3.097,5.027m-2.58,-36.704c0.005,-0.009 0.005,-0.021 0.005,-0.03c-0.021,-0.011 -0.043,-0.011 -0.069,-0.011c0.021,0.011 0.043,0.027 0.064,0.041m-23.696,-22.013l51.534,29.468l0,63.365l-51.534,-29.367l0,-63.466z" id="path30"/>
    </g>
    <g id="g32">
     <path fill="#f14437" fill-rule="evenodd" d="m286.307421,567.225538l-17.664,-10.066l-58.211,0c-2.751,0 -5,-2.25 -5,-5.002c0,-2.752 2.25,-5.001 5,-5.001l28.453,0c2.399,0 4.359,-1.961 4.359,-4.359c0,-2.4 -1.962,-4.361 -4.359,-4.361l-3.405,0.105c0.003,-0.108 0.005,-0.218 0.008,-0.331l50.823,-29.71l51.521,29.362l-51.525,29.363z" id="path34"/>
    </g>
    <g id="g36">
     <path fill="#922026" fill-rule="evenodd" d="m126.758135,519.209425c-2.728,0 -4.958,-2.229 -4.958,-4.958c0,-2.727 2.231,-4.957 4.958,-4.957l45.248,0c2.727,0 4.957,2.23 4.957,4.957c0,2.729 -2.23,4.958 -4.957,4.958l-45.248,0zm51.148,-37.113c-2.337,0 -4.248,-1.911 -4.248,-4.249c0,-2.338 1.914,-4.249 4.248,-4.249l15.08,0l4.313,0c2.334,0 4.248,1.911 4.248,4.249c0,2.338 -1.911,4.249 -4.248,4.249l-11.694,0l-7.699,0zm106.33,-39.856l-23.744,12.839l-9.906,0l-5.042,0l-45.912,0c-2.333,0 -4.249,1.912 -4.249,4.251c0,2.336 1.912,4.248 4.249,4.248l36.55,0l2.534,0c2.754,0 5.009,2.253 5.009,5.01c0,2.756 -2.253,5.01 -5.009,5.01l-4.979,0l-2.186,0l0,0.004l-0.189,-0.004l-19.393,0c-2.334,0 -4.249,1.911 -4.249,4.249c0,2.338 1.913,4.249 4.249,4.249l13.026,0l0.189,-0.005l0,0.007c2.313,0.074 4.182,1.988 4.182,4.319c0,2.331 -1.867,4.245 -4.182,4.318l0,0.003l-0.139,0l-39.44,0l-31.265,0c-2.725,0 -4.958,2.23 -4.958,4.957c0,2.728 2.23,4.958 4.958,4.958l47.165,0l30.046,0l9.394,0c2.376,0 4.32,1.943 4.32,4.32c0,2.378 -1.943,4.321 -4.32,4.321l-9.394,0l-30.046,0l-9.164,0c-2.726,0 -4.957,2.23 -4.957,4.957c0,2.729 2.23,4.958 4.957,4.958l21.299,0l2.758,0c2.377,0 4.321,1.943 4.321,4.321c0,2.377 -1.943,4.321 -4.321,4.321l-2.758,0l-15.197,0c-2.727,0 -4.957,2.23 -4.957,4.957c0,2.727 1.559,5.628 4.287,5.628l30.959,-0.132l2.91,-1.979l52.594,-30.975l0,-63.849l0,0.739z" id="path38"/>
    </g>
   </g>
  </g>
 </g>
</svg>